<mxfile host="app.diagrams.net" modified="2023-10-24T16:17:55.670Z" agent="Mozilla/5.0 (Windows NT 10.0; Win64; x64) AppleWebKit/537.36 (KHTML, like Gecko) Chrome/118.0.0.0 Safari/537.36" etag="0BIw-o-XMamSeN54FojF" version="22.0.6" type="github">
  <diagram id="C5RBs43oDa-KdzZeNtuy" name="Page-1">
    <mxGraphModel dx="1764" dy="2085" grid="1" gridSize="10" guides="1" tooltips="1" connect="1" arrows="1" fold="1" page="1" pageScale="1" pageWidth="827" pageHeight="1169" math="0" shadow="0">
      <root>
        <mxCell id="WIyWlLk6GJQsqaUBKTNV-0" />
        <mxCell id="WIyWlLk6GJQsqaUBKTNV-1" parent="WIyWlLk6GJQsqaUBKTNV-0" />
        <mxCell id="tCBTJ6ddVm1iuJIxQfPo-108" style="edgeStyle=orthogonalEdgeStyle;rounded=0;orthogonalLoop=1;jettySize=auto;html=1;exitX=0.5;exitY=1;exitDx=0;exitDy=0;entryX=0.5;entryY=0;entryDx=0;entryDy=0;" edge="1" parent="WIyWlLk6GJQsqaUBKTNV-1" source="tCBTJ6ddVm1iuJIxQfPo-0" target="tCBTJ6ddVm1iuJIxQfPo-1">
          <mxGeometry relative="1" as="geometry" />
        </mxCell>
        <mxCell id="tCBTJ6ddVm1iuJIxQfPo-0" value="Software-Architekt" style="rounded=0;whiteSpace=wrap;html=1;fillColor=#d5e8d4;strokeColor=#82b366;" vertex="1" parent="WIyWlLk6GJQsqaUBKTNV-1">
          <mxGeometry x="320" y="-100" width="120" height="60" as="geometry" />
        </mxCell>
        <mxCell id="tCBTJ6ddVm1iuJIxQfPo-55" style="edgeStyle=orthogonalEdgeStyle;rounded=0;orthogonalLoop=1;jettySize=auto;html=1;exitX=0;exitY=1;exitDx=0;exitDy=0;entryX=1;entryY=0;entryDx=0;entryDy=0;strokeColor=none;" edge="1" parent="WIyWlLk6GJQsqaUBKTNV-1" source="tCBTJ6ddVm1iuJIxQfPo-1" target="tCBTJ6ddVm1iuJIxQfPo-53">
          <mxGeometry relative="1" as="geometry" />
        </mxCell>
        <mxCell id="tCBTJ6ddVm1iuJIxQfPo-69" style="edgeStyle=orthogonalEdgeStyle;rounded=0;orthogonalLoop=1;jettySize=auto;html=1;exitX=0.5;exitY=1;exitDx=0;exitDy=0;entryX=0.5;entryY=0;entryDx=0;entryDy=0;" edge="1" parent="WIyWlLk6GJQsqaUBKTNV-1" source="tCBTJ6ddVm1iuJIxQfPo-1" target="tCBTJ6ddVm1iuJIxQfPo-68">
          <mxGeometry relative="1" as="geometry" />
        </mxCell>
        <mxCell id="tCBTJ6ddVm1iuJIxQfPo-84" style="edgeStyle=orthogonalEdgeStyle;rounded=0;orthogonalLoop=1;jettySize=auto;html=1;exitX=1;exitY=0.5;exitDx=0;exitDy=0;entryX=0;entryY=0.5;entryDx=0;entryDy=0;" edge="1" parent="WIyWlLk6GJQsqaUBKTNV-1" source="tCBTJ6ddVm1iuJIxQfPo-1" target="tCBTJ6ddVm1iuJIxQfPo-53">
          <mxGeometry relative="1" as="geometry" />
        </mxCell>
        <mxCell id="tCBTJ6ddVm1iuJIxQfPo-1" value="PMO" style="rounded=0;whiteSpace=wrap;html=1;" vertex="1" parent="WIyWlLk6GJQsqaUBKTNV-1">
          <mxGeometry x="320" width="120" height="60" as="geometry" />
        </mxCell>
        <mxCell id="tCBTJ6ddVm1iuJIxQfPo-5" value="Aufarbeitung" style="rounded=1;whiteSpace=wrap;html=1;" vertex="1" parent="WIyWlLk6GJQsqaUBKTNV-1">
          <mxGeometry x="320" y="240" width="120" height="60" as="geometry" />
        </mxCell>
        <mxCell id="tCBTJ6ddVm1iuJIxQfPo-172" style="edgeStyle=orthogonalEdgeStyle;rounded=0;orthogonalLoop=1;jettySize=auto;html=1;exitX=1;exitY=0.5;exitDx=0;exitDy=0;entryX=0;entryY=0.5;entryDx=0;entryDy=0;" edge="1" parent="WIyWlLk6GJQsqaUBKTNV-1" source="tCBTJ6ddVm1iuJIxQfPo-10" target="tCBTJ6ddVm1iuJIxQfPo-25">
          <mxGeometry relative="1" as="geometry" />
        </mxCell>
        <mxCell id="tCBTJ6ddVm1iuJIxQfPo-173" value="Ja" style="edgeLabel;html=1;align=center;verticalAlign=middle;resizable=0;points=[];" vertex="1" connectable="0" parent="tCBTJ6ddVm1iuJIxQfPo-172">
          <mxGeometry x="-0.0168" y="-2" relative="1" as="geometry">
            <mxPoint as="offset" />
          </mxGeometry>
        </mxCell>
        <mxCell id="tCBTJ6ddVm1iuJIxQfPo-201" style="edgeStyle=orthogonalEdgeStyle;rounded=0;orthogonalLoop=1;jettySize=auto;html=1;exitX=0;exitY=0.5;exitDx=0;exitDy=0;entryX=0;entryY=1;entryDx=0;entryDy=0;" edge="1" parent="WIyWlLk6GJQsqaUBKTNV-1" source="tCBTJ6ddVm1iuJIxQfPo-10" target="tCBTJ6ddVm1iuJIxQfPo-5">
          <mxGeometry relative="1" as="geometry" />
        </mxCell>
        <mxCell id="tCBTJ6ddVm1iuJIxQfPo-203" value="Fehler" style="edgeLabel;html=1;align=center;verticalAlign=middle;resizable=0;points=[];" vertex="1" connectable="0" parent="tCBTJ6ddVm1iuJIxQfPo-201">
          <mxGeometry x="-0.5522" y="1" relative="1" as="geometry">
            <mxPoint as="offset" />
          </mxGeometry>
        </mxCell>
        <mxCell id="tCBTJ6ddVm1iuJIxQfPo-10" value="" style="rhombus;whiteSpace=wrap;html=1;" vertex="1" parent="WIyWlLk6GJQsqaUBKTNV-1">
          <mxGeometry x="365" y="330" width="30" height="30" as="geometry" />
        </mxCell>
        <mxCell id="tCBTJ6ddVm1iuJIxQfPo-11" value="" style="endArrow=classic;html=1;rounded=0;exitX=0.5;exitY=1;exitDx=0;exitDy=0;entryX=0.5;entryY=0;entryDx=0;entryDy=0;" edge="1" parent="WIyWlLk6GJQsqaUBKTNV-1" source="tCBTJ6ddVm1iuJIxQfPo-5" target="tCBTJ6ddVm1iuJIxQfPo-10">
          <mxGeometry width="50" height="50" relative="1" as="geometry">
            <mxPoint x="380" y="310" as="sourcePoint" />
            <mxPoint x="430" y="260" as="targetPoint" />
          </mxGeometry>
        </mxCell>
        <mxCell id="tCBTJ6ddVm1iuJIxQfPo-119" style="edgeStyle=orthogonalEdgeStyle;rounded=0;orthogonalLoop=1;jettySize=auto;html=1;exitX=0.5;exitY=1;exitDx=0;exitDy=0;entryX=0.5;entryY=0;entryDx=0;entryDy=0;" edge="1" parent="WIyWlLk6GJQsqaUBKTNV-1" source="tCBTJ6ddVm1iuJIxQfPo-25" target="tCBTJ6ddVm1iuJIxQfPo-118">
          <mxGeometry relative="1" as="geometry" />
        </mxCell>
        <mxCell id="tCBTJ6ddVm1iuJIxQfPo-25" value="Projekt-Sharepoint" style="rounded=0;whiteSpace=wrap;html=1;" vertex="1" parent="WIyWlLk6GJQsqaUBKTNV-1">
          <mxGeometry x="480" y="315" width="120" height="60" as="geometry" />
        </mxCell>
        <mxCell id="tCBTJ6ddVm1iuJIxQfPo-153" style="edgeStyle=orthogonalEdgeStyle;rounded=0;orthogonalLoop=1;jettySize=auto;html=1;exitX=0.25;exitY=1;exitDx=0;exitDy=0;entryX=0.5;entryY=0;entryDx=0;entryDy=0;" edge="1" parent="WIyWlLk6GJQsqaUBKTNV-1" source="tCBTJ6ddVm1iuJIxQfPo-27" target="tCBTJ6ddVm1iuJIxQfPo-39">
          <mxGeometry relative="1" as="geometry" />
        </mxCell>
        <mxCell id="tCBTJ6ddVm1iuJIxQfPo-169" style="edgeStyle=orthogonalEdgeStyle;rounded=0;orthogonalLoop=1;jettySize=auto;html=1;exitX=0.75;exitY=1;exitDx=0;exitDy=0;entryX=0.5;entryY=0;entryDx=0;entryDy=0;" edge="1" parent="WIyWlLk6GJQsqaUBKTNV-1" source="tCBTJ6ddVm1iuJIxQfPo-27" target="tCBTJ6ddVm1iuJIxQfPo-165">
          <mxGeometry relative="1" as="geometry" />
        </mxCell>
        <mxCell id="tCBTJ6ddVm1iuJIxQfPo-27" value="Kunde" style="rounded=0;whiteSpace=wrap;html=1;" vertex="1" parent="WIyWlLk6GJQsqaUBKTNV-1">
          <mxGeometry x="640" y="480" width="120" height="60" as="geometry" />
        </mxCell>
        <mxCell id="tCBTJ6ddVm1iuJIxQfPo-152" style="edgeStyle=orthogonalEdgeStyle;rounded=0;orthogonalLoop=1;jettySize=auto;html=1;exitX=0.25;exitY=1;exitDx=0;exitDy=0;entryX=0.5;entryY=0;entryDx=0;entryDy=0;" edge="1" parent="WIyWlLk6GJQsqaUBKTNV-1" source="tCBTJ6ddVm1iuJIxQfPo-28" target="tCBTJ6ddVm1iuJIxQfPo-40">
          <mxGeometry relative="1" as="geometry" />
        </mxCell>
        <mxCell id="tCBTJ6ddVm1iuJIxQfPo-168" style="edgeStyle=orthogonalEdgeStyle;rounded=0;orthogonalLoop=1;jettySize=auto;html=1;exitX=0.75;exitY=1;exitDx=0;exitDy=0;entryX=0.5;entryY=0;entryDx=0;entryDy=0;" edge="1" parent="WIyWlLk6GJQsqaUBKTNV-1" source="tCBTJ6ddVm1iuJIxQfPo-28" target="tCBTJ6ddVm1iuJIxQfPo-163">
          <mxGeometry relative="1" as="geometry" />
        </mxCell>
        <mxCell id="tCBTJ6ddVm1iuJIxQfPo-28" value="IT-Leiter" style="rounded=0;whiteSpace=wrap;html=1;" vertex="1" parent="WIyWlLk6GJQsqaUBKTNV-1">
          <mxGeometry x="800" y="480" width="120" height="60" as="geometry" />
        </mxCell>
        <mxCell id="tCBTJ6ddVm1iuJIxQfPo-151" style="edgeStyle=orthogonalEdgeStyle;rounded=0;orthogonalLoop=1;jettySize=auto;html=1;exitX=0.25;exitY=1;exitDx=0;exitDy=0;entryX=0.5;entryY=0;entryDx=0;entryDy=0;" edge="1" parent="WIyWlLk6GJQsqaUBKTNV-1" source="tCBTJ6ddVm1iuJIxQfPo-29" target="tCBTJ6ddVm1iuJIxQfPo-41">
          <mxGeometry relative="1" as="geometry" />
        </mxCell>
        <mxCell id="tCBTJ6ddVm1iuJIxQfPo-167" style="edgeStyle=orthogonalEdgeStyle;rounded=0;orthogonalLoop=1;jettySize=auto;html=1;exitX=0.75;exitY=1;exitDx=0;exitDy=0;entryX=0.5;entryY=0;entryDx=0;entryDy=0;" edge="1" parent="WIyWlLk6GJQsqaUBKTNV-1" source="tCBTJ6ddVm1iuJIxQfPo-29" target="tCBTJ6ddVm1iuJIxQfPo-166">
          <mxGeometry relative="1" as="geometry" />
        </mxCell>
        <mxCell id="tCBTJ6ddVm1iuJIxQfPo-29" value="Gutachter" style="rounded=0;whiteSpace=wrap;html=1;" vertex="1" parent="WIyWlLk6GJQsqaUBKTNV-1">
          <mxGeometry x="960" y="480" width="120" height="60" as="geometry" />
        </mxCell>
        <mxCell id="tCBTJ6ddVm1iuJIxQfPo-154" style="edgeStyle=orthogonalEdgeStyle;rounded=0;orthogonalLoop=1;jettySize=auto;html=1;exitX=0.5;exitY=1;exitDx=0;exitDy=0;entryX=0;entryY=1;entryDx=0;entryDy=0;" edge="1" parent="WIyWlLk6GJQsqaUBKTNV-1" source="tCBTJ6ddVm1iuJIxQfPo-39" target="tCBTJ6ddVm1iuJIxQfPo-1">
          <mxGeometry relative="1" as="geometry">
            <Array as="points">
              <mxPoint x="665" y="640" />
              <mxPoint x="280" y="640" />
              <mxPoint x="280" y="60" />
            </Array>
          </mxGeometry>
        </mxCell>
        <mxCell id="tCBTJ6ddVm1iuJIxQfPo-39" value="Review" style="rounded=1;whiteSpace=wrap;html=1;" vertex="1" parent="WIyWlLk6GJQsqaUBKTNV-1">
          <mxGeometry x="610" y="560" width="110" height="60" as="geometry" />
        </mxCell>
        <mxCell id="tCBTJ6ddVm1iuJIxQfPo-155" style="edgeStyle=orthogonalEdgeStyle;rounded=0;orthogonalLoop=1;jettySize=auto;html=1;exitX=0.5;exitY=1;exitDx=0;exitDy=0;entryX=0;entryY=0.5;entryDx=0;entryDy=0;" edge="1" parent="WIyWlLk6GJQsqaUBKTNV-1" source="tCBTJ6ddVm1iuJIxQfPo-40" target="tCBTJ6ddVm1iuJIxQfPo-1">
          <mxGeometry relative="1" as="geometry">
            <Array as="points">
              <mxPoint x="825" y="670" />
              <mxPoint x="250" y="670" />
              <mxPoint x="250" y="30" />
            </Array>
          </mxGeometry>
        </mxCell>
        <mxCell id="tCBTJ6ddVm1iuJIxQfPo-40" value="Review" style="rounded=1;whiteSpace=wrap;html=1;" vertex="1" parent="WIyWlLk6GJQsqaUBKTNV-1">
          <mxGeometry x="770" y="560" width="110" height="60" as="geometry" />
        </mxCell>
        <mxCell id="tCBTJ6ddVm1iuJIxQfPo-156" style="edgeStyle=orthogonalEdgeStyle;rounded=0;orthogonalLoop=1;jettySize=auto;html=1;exitX=0.5;exitY=1;exitDx=0;exitDy=0;entryX=0;entryY=0;entryDx=0;entryDy=0;" edge="1" parent="WIyWlLk6GJQsqaUBKTNV-1" source="tCBTJ6ddVm1iuJIxQfPo-41" target="tCBTJ6ddVm1iuJIxQfPo-1">
          <mxGeometry relative="1" as="geometry">
            <Array as="points">
              <mxPoint x="985" y="700" />
              <mxPoint x="220" y="700" />
              <mxPoint x="220" />
            </Array>
          </mxGeometry>
        </mxCell>
        <mxCell id="tCBTJ6ddVm1iuJIxQfPo-41" value="Review" style="rounded=1;whiteSpace=wrap;html=1;" vertex="1" parent="WIyWlLk6GJQsqaUBKTNV-1">
          <mxGeometry x="930" y="560" width="110" height="60" as="geometry" />
        </mxCell>
        <mxCell id="tCBTJ6ddVm1iuJIxQfPo-87" style="edgeStyle=orthogonalEdgeStyle;rounded=0;orthogonalLoop=1;jettySize=auto;html=1;exitX=0.5;exitY=1;exitDx=0;exitDy=0;entryX=0.5;entryY=0;entryDx=0;entryDy=0;" edge="1" parent="WIyWlLk6GJQsqaUBKTNV-1" source="tCBTJ6ddVm1iuJIxQfPo-53" target="tCBTJ6ddVm1iuJIxQfPo-86">
          <mxGeometry relative="1" as="geometry" />
        </mxCell>
        <mxCell id="tCBTJ6ddVm1iuJIxQfPo-53" value="Alle Reviews&amp;nbsp;&lt;br&gt;erhalten?" style="rounded=1;whiteSpace=wrap;html=1;" vertex="1" parent="WIyWlLk6GJQsqaUBKTNV-1">
          <mxGeometry x="480" width="120" height="60" as="geometry" />
        </mxCell>
        <mxCell id="tCBTJ6ddVm1iuJIxQfPo-71" style="edgeStyle=orthogonalEdgeStyle;rounded=0;orthogonalLoop=1;jettySize=auto;html=1;exitX=0.5;exitY=1;exitDx=0;exitDy=0;entryX=0.5;entryY=0;entryDx=0;entryDy=0;" edge="1" parent="WIyWlLk6GJQsqaUBKTNV-1" source="tCBTJ6ddVm1iuJIxQfPo-68" target="tCBTJ6ddVm1iuJIxQfPo-70">
          <mxGeometry relative="1" as="geometry" />
        </mxCell>
        <mxCell id="tCBTJ6ddVm1iuJIxQfPo-68" value="Prüfung notwendig?&lt;br&gt;(erster Durchlauf,&lt;br&gt;kritischer Fehler)" style="rounded=1;whiteSpace=wrap;html=1;" vertex="1" parent="WIyWlLk6GJQsqaUBKTNV-1">
          <mxGeometry x="320" y="80" width="120" height="60" as="geometry" />
        </mxCell>
        <mxCell id="tCBTJ6ddVm1iuJIxQfPo-180" style="edgeStyle=orthogonalEdgeStyle;rounded=0;orthogonalLoop=1;jettySize=auto;html=1;exitX=0.5;exitY=1;exitDx=0;exitDy=0;entryX=0.5;entryY=0;entryDx=0;entryDy=0;" edge="1" parent="WIyWlLk6GJQsqaUBKTNV-1" source="tCBTJ6ddVm1iuJIxQfPo-70" target="tCBTJ6ddVm1iuJIxQfPo-5">
          <mxGeometry relative="1" as="geometry" />
        </mxCell>
        <mxCell id="tCBTJ6ddVm1iuJIxQfPo-181" value="Ja" style="edgeLabel;html=1;align=center;verticalAlign=middle;resizable=0;points=[];" vertex="1" connectable="0" parent="tCBTJ6ddVm1iuJIxQfPo-180">
          <mxGeometry x="-0.2863" y="2" relative="1" as="geometry">
            <mxPoint as="offset" />
          </mxGeometry>
        </mxCell>
        <mxCell id="tCBTJ6ddVm1iuJIxQfPo-182" style="edgeStyle=orthogonalEdgeStyle;rounded=0;orthogonalLoop=1;jettySize=auto;html=1;exitX=1;exitY=0.5;exitDx=0;exitDy=0;entryX=0;entryY=0.5;entryDx=0;entryDy=0;" edge="1" parent="WIyWlLk6GJQsqaUBKTNV-1" source="tCBTJ6ddVm1iuJIxQfPo-70" target="tCBTJ6ddVm1iuJIxQfPo-82">
          <mxGeometry relative="1" as="geometry" />
        </mxCell>
        <mxCell id="tCBTJ6ddVm1iuJIxQfPo-183" value="Nein" style="edgeLabel;html=1;align=center;verticalAlign=middle;resizable=0;points=[];" vertex="1" connectable="0" parent="tCBTJ6ddVm1iuJIxQfPo-182">
          <mxGeometry x="-0.0595" y="-3" relative="1" as="geometry">
            <mxPoint as="offset" />
          </mxGeometry>
        </mxCell>
        <mxCell id="tCBTJ6ddVm1iuJIxQfPo-70" value="" style="rhombus;whiteSpace=wrap;html=1;" vertex="1" parent="WIyWlLk6GJQsqaUBKTNV-1">
          <mxGeometry x="365" y="167.5" width="30" height="30" as="geometry" />
        </mxCell>
        <mxCell id="tCBTJ6ddVm1iuJIxQfPo-157" style="edgeStyle=orthogonalEdgeStyle;rounded=0;orthogonalLoop=1;jettySize=auto;html=1;exitX=0.5;exitY=1;exitDx=0;exitDy=0;entryX=0;entryY=0.5;entryDx=0;entryDy=0;" edge="1" parent="WIyWlLk6GJQsqaUBKTNV-1" source="tCBTJ6ddVm1iuJIxQfPo-82" target="tCBTJ6ddVm1iuJIxQfPo-131">
          <mxGeometry relative="1" as="geometry" />
        </mxCell>
        <mxCell id="tCBTJ6ddVm1iuJIxQfPo-82" value="ABNAHME" style="rounded=1;whiteSpace=wrap;html=1;fillColor=#dae8fc;strokeColor=#6c8ebf;" vertex="1" parent="WIyWlLk6GJQsqaUBKTNV-1">
          <mxGeometry x="480" y="152.5" width="120" height="60" as="geometry" />
        </mxCell>
        <mxCell id="tCBTJ6ddVm1iuJIxQfPo-188" style="edgeStyle=orthogonalEdgeStyle;rounded=0;orthogonalLoop=1;jettySize=auto;html=1;exitX=1;exitY=0.5;exitDx=0;exitDy=0;entryX=0;entryY=0.5;entryDx=0;entryDy=0;" edge="1" parent="WIyWlLk6GJQsqaUBKTNV-1" source="tCBTJ6ddVm1iuJIxQfPo-86" target="tCBTJ6ddVm1iuJIxQfPo-96">
          <mxGeometry relative="1" as="geometry" />
        </mxCell>
        <mxCell id="tCBTJ6ddVm1iuJIxQfPo-189" value="Ja" style="edgeLabel;html=1;align=center;verticalAlign=middle;resizable=0;points=[];" vertex="1" connectable="0" parent="tCBTJ6ddVm1iuJIxQfPo-188">
          <mxGeometry x="-0.4655" y="-1" relative="1" as="geometry">
            <mxPoint as="offset" />
          </mxGeometry>
        </mxCell>
        <mxCell id="tCBTJ6ddVm1iuJIxQfPo-190" style="edgeStyle=orthogonalEdgeStyle;rounded=0;orthogonalLoop=1;jettySize=auto;html=1;exitX=0;exitY=0.5;exitDx=0;exitDy=0;entryX=0;entryY=1;entryDx=0;entryDy=0;" edge="1" parent="WIyWlLk6GJQsqaUBKTNV-1" source="tCBTJ6ddVm1iuJIxQfPo-86" target="tCBTJ6ddVm1iuJIxQfPo-53">
          <mxGeometry relative="1" as="geometry" />
        </mxCell>
        <mxCell id="tCBTJ6ddVm1iuJIxQfPo-191" value="Nein" style="edgeLabel;html=1;align=center;verticalAlign=middle;resizable=0;points=[];" vertex="1" connectable="0" parent="tCBTJ6ddVm1iuJIxQfPo-190">
          <mxGeometry x="-0.4279" y="-1" relative="1" as="geometry">
            <mxPoint as="offset" />
          </mxGeometry>
        </mxCell>
        <mxCell id="tCBTJ6ddVm1iuJIxQfPo-86" value="" style="rhombus;whiteSpace=wrap;html=1;" vertex="1" parent="WIyWlLk6GJQsqaUBKTNV-1">
          <mxGeometry x="525" y="90" width="30" height="30" as="geometry" />
        </mxCell>
        <mxCell id="tCBTJ6ddVm1iuJIxQfPo-99" style="edgeStyle=orthogonalEdgeStyle;rounded=0;orthogonalLoop=1;jettySize=auto;html=1;exitX=0.5;exitY=1;exitDx=0;exitDy=0;entryX=0.5;entryY=0;entryDx=0;entryDy=0;" edge="1" parent="WIyWlLk6GJQsqaUBKTNV-1" source="tCBTJ6ddVm1iuJIxQfPo-96" target="tCBTJ6ddVm1iuJIxQfPo-98">
          <mxGeometry relative="1" as="geometry" />
        </mxCell>
        <mxCell id="tCBTJ6ddVm1iuJIxQfPo-96" value="Fehler?" style="rounded=1;whiteSpace=wrap;html=1;" vertex="1" parent="WIyWlLk6GJQsqaUBKTNV-1">
          <mxGeometry x="640" y="75" width="120" height="60" as="geometry" />
        </mxCell>
        <mxCell id="tCBTJ6ddVm1iuJIxQfPo-184" style="edgeStyle=orthogonalEdgeStyle;rounded=0;orthogonalLoop=1;jettySize=auto;html=1;exitX=0;exitY=0.5;exitDx=0;exitDy=0;entryX=1;entryY=0.5;entryDx=0;entryDy=0;" edge="1" parent="WIyWlLk6GJQsqaUBKTNV-1" source="tCBTJ6ddVm1iuJIxQfPo-98" target="tCBTJ6ddVm1iuJIxQfPo-82">
          <mxGeometry relative="1" as="geometry" />
        </mxCell>
        <mxCell id="tCBTJ6ddVm1iuJIxQfPo-185" value="Nein" style="edgeLabel;html=1;align=center;verticalAlign=middle;resizable=0;points=[];" vertex="1" connectable="0" parent="tCBTJ6ddVm1iuJIxQfPo-184">
          <mxGeometry x="-0.1865" y="-3" relative="1" as="geometry">
            <mxPoint as="offset" />
          </mxGeometry>
        </mxCell>
        <mxCell id="tCBTJ6ddVm1iuJIxQfPo-186" style="edgeStyle=orthogonalEdgeStyle;rounded=0;orthogonalLoop=1;jettySize=auto;html=1;exitX=1;exitY=0.5;exitDx=0;exitDy=0;entryX=1;entryY=0.5;entryDx=0;entryDy=0;" edge="1" parent="WIyWlLk6GJQsqaUBKTNV-1" source="tCBTJ6ddVm1iuJIxQfPo-98" target="tCBTJ6ddVm1iuJIxQfPo-0">
          <mxGeometry relative="1" as="geometry">
            <Array as="points">
              <mxPoint x="780" y="183" />
              <mxPoint x="780" y="-70" />
            </Array>
          </mxGeometry>
        </mxCell>
        <mxCell id="tCBTJ6ddVm1iuJIxQfPo-187" value="Ja" style="edgeLabel;html=1;align=center;verticalAlign=middle;resizable=0;points=[];" vertex="1" connectable="0" parent="tCBTJ6ddVm1iuJIxQfPo-186">
          <mxGeometry x="-0.8729" y="1" relative="1" as="geometry">
            <mxPoint as="offset" />
          </mxGeometry>
        </mxCell>
        <mxCell id="tCBTJ6ddVm1iuJIxQfPo-98" value="" style="rhombus;whiteSpace=wrap;html=1;" vertex="1" parent="WIyWlLk6GJQsqaUBKTNV-1">
          <mxGeometry x="685" y="167.5" width="30" height="30" as="geometry" />
        </mxCell>
        <mxCell id="tCBTJ6ddVm1iuJIxQfPo-145" style="edgeStyle=orthogonalEdgeStyle;rounded=0;orthogonalLoop=1;jettySize=auto;html=1;exitX=0;exitY=1;exitDx=0;exitDy=0;entryX=0;entryY=0.5;entryDx=0;entryDy=0;" edge="1" parent="WIyWlLk6GJQsqaUBKTNV-1" source="tCBTJ6ddVm1iuJIxQfPo-118" target="tCBTJ6ddVm1iuJIxQfPo-27">
          <mxGeometry relative="1" as="geometry" />
        </mxCell>
        <mxCell id="tCBTJ6ddVm1iuJIxQfPo-146" style="edgeStyle=orthogonalEdgeStyle;rounded=0;orthogonalLoop=1;jettySize=auto;html=1;exitX=0.5;exitY=1;exitDx=0;exitDy=0;entryX=0;entryY=0.5;entryDx=0;entryDy=0;" edge="1" parent="WIyWlLk6GJQsqaUBKTNV-1" source="tCBTJ6ddVm1iuJIxQfPo-118" target="tCBTJ6ddVm1iuJIxQfPo-28">
          <mxGeometry relative="1" as="geometry">
            <Array as="points">
              <mxPoint x="540" y="470" />
              <mxPoint x="780" y="470" />
              <mxPoint x="780" y="510" />
            </Array>
          </mxGeometry>
        </mxCell>
        <mxCell id="tCBTJ6ddVm1iuJIxQfPo-147" style="edgeStyle=orthogonalEdgeStyle;rounded=0;orthogonalLoop=1;jettySize=auto;html=1;exitX=1;exitY=1;exitDx=0;exitDy=0;entryX=0;entryY=0.5;entryDx=0;entryDy=0;" edge="1" parent="WIyWlLk6GJQsqaUBKTNV-1" source="tCBTJ6ddVm1iuJIxQfPo-118" target="tCBTJ6ddVm1iuJIxQfPo-29">
          <mxGeometry relative="1" as="geometry">
            <Array as="points">
              <mxPoint x="940" y="460" />
              <mxPoint x="940" y="510" />
            </Array>
          </mxGeometry>
        </mxCell>
        <mxCell id="tCBTJ6ddVm1iuJIxQfPo-118" value="Benachrichtigung/&lt;br&gt;Bereitstellung" style="rounded=1;whiteSpace=wrap;html=1;" vertex="1" parent="WIyWlLk6GJQsqaUBKTNV-1">
          <mxGeometry x="480" y="400" width="120" height="60" as="geometry" />
        </mxCell>
        <mxCell id="tCBTJ6ddVm1iuJIxQfPo-159" style="edgeStyle=orthogonalEdgeStyle;rounded=0;orthogonalLoop=1;jettySize=auto;html=1;exitX=0.5;exitY=1;exitDx=0;exitDy=0;entryX=0.5;entryY=0;entryDx=0;entryDy=0;" edge="1" parent="WIyWlLk6GJQsqaUBKTNV-1" source="tCBTJ6ddVm1iuJIxQfPo-131" target="tCBTJ6ddVm1iuJIxQfPo-28">
          <mxGeometry relative="1" as="geometry" />
        </mxCell>
        <mxCell id="tCBTJ6ddVm1iuJIxQfPo-131" value="Letter of Acceptance" style="rounded=0;whiteSpace=wrap;html=1;" vertex="1" parent="WIyWlLk6GJQsqaUBKTNV-1">
          <mxGeometry x="800" y="240" width="120" height="60" as="geometry" />
        </mxCell>
        <mxCell id="tCBTJ6ddVm1iuJIxQfPo-161" value="" style="endArrow=classic;html=1;rounded=0;exitX=0;exitY=1;exitDx=0;exitDy=0;entryX=0.5;entryY=0;entryDx=0;entryDy=0;" edge="1" parent="WIyWlLk6GJQsqaUBKTNV-1" source="tCBTJ6ddVm1iuJIxQfPo-131" target="tCBTJ6ddVm1iuJIxQfPo-27">
          <mxGeometry width="50" height="50" relative="1" as="geometry">
            <mxPoint x="740" y="470" as="sourcePoint" />
            <mxPoint x="790" y="420" as="targetPoint" />
          </mxGeometry>
        </mxCell>
        <mxCell id="tCBTJ6ddVm1iuJIxQfPo-162" value="" style="endArrow=classic;html=1;rounded=0;exitX=1;exitY=1;exitDx=0;exitDy=0;" edge="1" parent="WIyWlLk6GJQsqaUBKTNV-1" source="tCBTJ6ddVm1iuJIxQfPo-131" target="tCBTJ6ddVm1iuJIxQfPo-29">
          <mxGeometry width="50" height="50" relative="1" as="geometry">
            <mxPoint x="740" y="470" as="sourcePoint" />
            <mxPoint x="790" y="420" as="targetPoint" />
          </mxGeometry>
        </mxCell>
        <mxCell id="tCBTJ6ddVm1iuJIxQfPo-216" style="edgeStyle=orthogonalEdgeStyle;rounded=0;orthogonalLoop=1;jettySize=auto;html=1;exitX=0.5;exitY=1;exitDx=0;exitDy=0;entryX=0.5;entryY=0;entryDx=0;entryDy=0;" edge="1" parent="WIyWlLk6GJQsqaUBKTNV-1" source="tCBTJ6ddVm1iuJIxQfPo-163" target="tCBTJ6ddVm1iuJIxQfPo-215">
          <mxGeometry relative="1" as="geometry" />
        </mxCell>
        <mxCell id="tCBTJ6ddVm1iuJIxQfPo-163" value="Unterschrift" style="rounded=1;whiteSpace=wrap;html=1;" vertex="1" parent="WIyWlLk6GJQsqaUBKTNV-1">
          <mxGeometry x="830" y="720" width="120" height="60" as="geometry" />
        </mxCell>
        <mxCell id="tCBTJ6ddVm1iuJIxQfPo-217" style="edgeStyle=orthogonalEdgeStyle;rounded=0;orthogonalLoop=1;jettySize=auto;html=1;exitX=0.5;exitY=1;exitDx=0;exitDy=0;entryX=0;entryY=0.5;entryDx=0;entryDy=0;" edge="1" parent="WIyWlLk6GJQsqaUBKTNV-1" source="tCBTJ6ddVm1iuJIxQfPo-165" target="tCBTJ6ddVm1iuJIxQfPo-215">
          <mxGeometry relative="1" as="geometry" />
        </mxCell>
        <mxCell id="tCBTJ6ddVm1iuJIxQfPo-165" value="Unterschrift" style="rounded=1;whiteSpace=wrap;html=1;" vertex="1" parent="WIyWlLk6GJQsqaUBKTNV-1">
          <mxGeometry x="670" y="720" width="120" height="60" as="geometry" />
        </mxCell>
        <mxCell id="tCBTJ6ddVm1iuJIxQfPo-218" style="edgeStyle=orthogonalEdgeStyle;rounded=0;orthogonalLoop=1;jettySize=auto;html=1;exitX=0.5;exitY=1;exitDx=0;exitDy=0;entryX=1;entryY=0.5;entryDx=0;entryDy=0;" edge="1" parent="WIyWlLk6GJQsqaUBKTNV-1" source="tCBTJ6ddVm1iuJIxQfPo-166" target="tCBTJ6ddVm1iuJIxQfPo-215">
          <mxGeometry relative="1" as="geometry" />
        </mxCell>
        <mxCell id="tCBTJ6ddVm1iuJIxQfPo-166" value="Unterschrift" style="rounded=1;whiteSpace=wrap;html=1;" vertex="1" parent="WIyWlLk6GJQsqaUBKTNV-1">
          <mxGeometry x="990" y="720" width="120" height="60" as="geometry" />
        </mxCell>
        <mxCell id="tCBTJ6ddVm1iuJIxQfPo-220" style="edgeStyle=orthogonalEdgeStyle;rounded=0;orthogonalLoop=1;jettySize=auto;html=1;exitX=0.5;exitY=1;exitDx=0;exitDy=0;entryX=0.5;entryY=0;entryDx=0;entryDy=0;" edge="1" parent="WIyWlLk6GJQsqaUBKTNV-1" source="tCBTJ6ddVm1iuJIxQfPo-215" target="tCBTJ6ddVm1iuJIxQfPo-219">
          <mxGeometry relative="1" as="geometry" />
        </mxCell>
        <mxCell id="tCBTJ6ddVm1iuJIxQfPo-221" value="Ja" style="edgeLabel;html=1;align=center;verticalAlign=middle;resizable=0;points=[];" vertex="1" connectable="0" parent="tCBTJ6ddVm1iuJIxQfPo-220">
          <mxGeometry x="-0.6333" y="1" relative="1" as="geometry">
            <mxPoint as="offset" />
          </mxGeometry>
        </mxCell>
        <mxCell id="tCBTJ6ddVm1iuJIxQfPo-215" value="" style="rhombus;whiteSpace=wrap;html=1;" vertex="1" parent="WIyWlLk6GJQsqaUBKTNV-1">
          <mxGeometry x="875" y="810" width="30" height="30" as="geometry" />
        </mxCell>
        <mxCell id="tCBTJ6ddVm1iuJIxQfPo-219" value="Implementierung" style="rounded=1;whiteSpace=wrap;html=1;fillColor=#d5e8d4;strokeColor=#82b366;" vertex="1" parent="WIyWlLk6GJQsqaUBKTNV-1">
          <mxGeometry x="830" y="880" width="120" height="60" as="geometry" />
        </mxCell>
      </root>
    </mxGraphModel>
  </diagram>
</mxfile>
